<svg class="landscapeButton-icon" fill="#fff" version="1.1" xmlns="http://www.w3.org/2000/svg" x="0px" y="0px" viewBox="0 0 100 100"
     preserveAspectRatio="xMidYMid meet">
    <path d="M88.924,43.234c-0.288-0.18-0.647-0.198-0.948-0.05l-18.711,9.162l-9.099-4.41l-7.797-3.779 l7.797-3.779c0.487-0.235,0.689-0.82,0.454-1.305c-0.237-0.486-0.817-0.683-1.305-0.453l-9.181,4.449l-9.181-4.449 c-0.487-0.232-1.069-0.032-1.305,0.453c-0.235,0.486-0.032,1.071,0.454,1.305l7.796,3.779l-7.788,3.775 c-0.001,0.001-0.002,0.002-0.004,0.003l-0.004,0.002l-9.197,4.459l-7.383-3.565l7.833-3.797c0.487-0.235,0.689-0.82,0.454-1.305 c-0.237-0.486-0.817-0.686-1.305-0.453l-9.226,4.472l-7.432-3.588L40.53,31.276l9.178,4.448c0.137,0.066,0.282,0.097,0.426,0.097 c0.363,0,0.71-0.202,0.88-0.551c0.235-0.486,0.032-1.071-0.454-1.305l-7.785-3.773l4.638-2.239c1.758-0.846,3.771-0.844,5.521,0.006 l23.881,11.608l-7.801,3.781c-0.487,0.235-0.689,0.82-0.454,1.305c0.17,0.348,0.517,0.551,0.88,0.551 c0.143,0,0.288-0.031,0.426-0.097l9.607-4.656c0.053-0.026,0.089-0.069,0.135-0.103c0.038-0.027,0.075-0.05,0.109-0.082 c0.062-0.06,0.109-0.127,0.153-0.2c0.016-0.026,0.042-0.044,0.055-0.072c0.006-0.013,0.005-0.028,0.01-0.041 c0.031-0.072,0.045-0.146,0.058-0.224c0.009-0.053,0.022-0.104,0.022-0.157c0-0.058-0.014-0.115-0.024-0.173 c-0.013-0.072-0.025-0.14-0.053-0.207c-0.006-0.015-0.005-0.031-0.012-0.046c-0.015-0.031-0.043-0.051-0.061-0.08 c-0.042-0.07-0.088-0.135-0.147-0.193c-0.034-0.032-0.071-0.056-0.109-0.083c-0.046-0.034-0.082-0.078-0.136-0.104L53.787,26.201 c-2.294-1.113-4.925-1.118-7.227-0.008L11.17,43.279c-0.338,0.163-0.552,0.505-0.552,0.88c0,0.375,0.214,0.717,0.552,0.88 l38.022,18.356v8.709L12.019,54.25c-0.485-0.232-1.069-0.031-1.305,0.458c-0.233,0.486-0.029,1.07,0.458,1.303L49.749,74.54 c0.005,0.002,0.01,0.001,0.015,0.003c0.124,0.057,0.259,0.093,0.405,0.093c0.001,0,0.001,0,0.002,0c0.001,0,0.001,0,0.002,0 c0.009,0,0.017-0.006,0.026-0.006c0.134-0.004,0.259-0.034,0.374-0.086c0.009-0.004,0.02-0.002,0.029-0.007l38.012-18.625 c0.317-0.156,0.527-0.47,0.546-0.822l0.2-3.553l0.021-7.471C89.382,43.728,89.21,43.414,88.924,43.234z M40.948,49.696 c0.001-0.001,0.003,0,0.004-0.001l9.181-4.449l9.181,4.449c0.001,0.001,0.002,0,0.004,0.001l7.719,3.741l-7.33,3.589l-9.149-4.434 c-0.485-0.232-1.067-0.033-1.305,0.453c-0.235,0.486-0.032,1.071,0.454,1.305l7.772,3.767l-7.31,3.579l-17.023-8.219L40.948,49.696z M87.409,51.478l-0.166,2.93L51.146,72.095v-8.7l8.994-4.404c0.052-0.024,0.102-0.04,0.149-0.073l9.223-4.516 c0.175-0.032,0.328-0.106,0.463-0.226l17.449-8.544L87.409,51.478z"></path>
</svg>
