<svg class="landscapeButton-icon" version="1.1" xmlns="http://www.w3.org/2000/svg" x="0px" y="0px" viewBox="0 0 100 100"
     preserveAspectRatio="xMidYMid meet">
    <path d="M-176.819,50.012c-4.915-1.765-10.532-1.116-16.695,1.93c-1.281,0.634-2.544,1.418-3.88,2.249 c-2.688,1.671-5.458,3.382-8.291,3.725V45.01c0-0.378-0.213-0.723-0.55-0.893s-0.74-0.136-1.045,0.089 c-0.026,0.02-2.716,1.975-6.606,1.975c-2.019,0-4.126-1.007-5.5-2.626c-0.989-1.167-2.064-3.182-1.572-6.153 c0.926-5.586,1.334-16.266-0.784-22.584c2.541,2.252,5.049,5.685,7.035,9.083c-1.006,2.698-1.879,5.494-2.418,8.151 c-0.271,1.343,0.163,3.36,1.52,4.618c1.063,0.984,2.484,1.292,4.001,0.863c2.665-0.752,3.131-3.842,2.61-5.796 c-0.552-2.072-1.804-4.997-3.494-8.022c2.034-5.245,4.518-10.056,5.804-12.435c1.287,2.378,3.771,7.188,5.804,12.435 c-1.69,3.026-2.942,5.951-3.495,8.023c-0.52,1.954-0.054,5.043,2.611,5.796c1.516,0.429,2.938,0.122,4.001-0.863 c1.356-1.258,1.791-3.275,1.52-4.619c-0.539-2.657-1.412-5.453-2.418-8.151c1.986-3.398,4.494-6.831,7.035-9.083 c-2.118,6.319-1.71,16.998-0.784,22.584c0.492,2.973-0.584,4.988-1.573,6.154c-1.374,1.62-3.48,2.626-5.499,2.626 c-0.553,0-1,0.447-1,1s0.447,1,1,1c2.629,0,5.255-1.246,7.024-3.332c1.784-2.104,2.502-4.866,2.021-7.774 c-1.312-7.918-1.07-21.106,2.3-24.596c0.331-0.342,0.375-0.87,0.105-1.261c-0.27-0.393-0.779-0.539-1.216-0.354 c-3.695,1.572-7.456,6.023-10.341,10.661c-2.77-6.8-6.026-12.458-6.229-12.809c-0.357-0.618-1.373-0.618-1.73,0 c-0.203,0.35-3.46,6.008-6.229,12.809c-2.885-4.637-6.646-9.088-10.341-10.661c-0.438-0.186-0.946-0.039-1.216,0.354 c-0.27,0.392-0.226,0.919,0.105,1.261c3.37,3.489,3.611,16.677,2.3,24.596c-0.482,2.908,0.235,5.669,2.02,7.773 c1.77,2.087,4.396,3.333,7.025,3.333c2.658,0,4.83-0.777,6.201-1.442v11.177c-2.833-0.343-5.603-2.054-8.291-3.725 c-1.336-0.831-2.599-1.615-3.88-2.249c-6.162-3.045-11.777-3.696-16.695-1.93c-0.458,0.165-0.73,0.634-0.647,1.113 c0.084,0.479,0.499,0.828,0.985,0.828c3.544,0,5.735,3.259,7.854,6.409c0.762,1.134,1.481,2.204,2.263,3.128 c4.833,5.713,9.504,4.551,14.913,3.203c0.708-0.176,1.439-0.358,2.2-0.533c0.322-0.077,0.656-0.002,0.912,0.202 c0.145,0.114,0.387,0.372,0.387,0.803v25.583c0,0.553,0.447,1,1,1s1-0.447,1-1V65.165c0-0.928-0.416-1.791-1.142-2.368 c-0.737-0.585-1.687-0.797-2.607-0.586c-0.771,0.178-1.515,0.362-2.233,0.542c-5.343,1.329-8.873,2.208-12.902-2.554 c-0.711-0.84-1.4-1.866-2.131-2.952c-1.526-2.271-3.188-4.744-5.484-6.148c3.479-0.284,7.309,0.593,11.442,2.636 c1.194,0.591,2.417,1.351,3.711,2.154c3.119,1.939,6.342,3.921,9.923,4.071c2.24,2.047,7.356,4.738,12.325,4.738 c0.186,0,0.372-0.003,0.557-0.011c2.923-0.122,5.263-1.197,6.954-3.197c0.781-0.924,1.501-1.994,2.263-3.128 c2.118-3.15,4.31-6.409,7.854-6.409c0.486,0,0.901-0.35,0.985-0.828C-176.088,50.646-176.361,50.177-176.819,50.012z M-198.206,32.448c0.156,0.771-0.15,2.043-0.919,2.755c-0.555,0.515-1.24,0.647-2.098,0.405c-1.472-0.416-1.455-2.479-1.222-3.356 c0.424-1.588,1.308-3.725,2.491-6.01C-199.227,28.332-198.612,30.441-198.206,32.448z M-213.417,26.242 c1.185,2.286,2.067,4.421,2.49,6.01c0.234,0.877,0.251,2.941-1.221,3.356c-0.856,0.242-1.542,0.11-2.098-0.405 c-0.769-0.712-1.075-1.984-0.919-2.754C-214.758,30.442-214.143,28.333-213.417,26.242z M-186.669,57.247 c-0.73,1.086-1.42,2.112-2.131,2.952c-1.315,1.555-3.169,2.393-5.51,2.489c-3.497,0.154-7.381-1.386-9.87-2.999 c2.769-0.646,5.338-2.244,7.842-3.801c1.294-0.804,2.517-1.563,3.711-2.154c4.135-2.044,7.963-2.924,11.442-2.636 C-183.481,52.503-185.143,54.976-186.669,57.247z"></path>
    <path d="M-45.264,37.622c-0.13-0.061-3.126-1.415-9.504-1.032c0.061-0.833,0.353-2.095,1.437-3.157 c0.283-0.276,0.376-0.694,0.237-1.064c-0.138-0.37-0.481-0.625-0.877-0.648c-2.316-0.139-5.44,2.12-7.076,3.482 c-0.339-0.909-0.745-2.165-0.883-3.273c-0.041-0.338-0.252-0.631-0.56-0.779c-0.306-0.147-0.669-0.129-0.958,0.05 c-1.781,1.1-3.153,2.913-4.48,4.667c-0.555,0.734-1.079,1.427-1.63,2.07c-1.979,2.308-4.109,4.239-6.514,5.901 c-0.562,0.39-1.142,0.695-1.734,0.916c0.494-1.07,0.712-2.285,0.942-3.563c0.201-1.12,0.41-2.278,0.812-3.546 c0.791-2.497,1.248-3.519,1.826-4.813c0.284-0.637,0.595-1.331,0.979-2.278c1.396-3.426-0.152-6.413-0.661-7.394 c-0.041-0.081-0.075-0.143-0.093-0.183c-0.156-0.371-0.519-0.612-0.921-0.613h-0.001c-0.402,0-0.765,0.241-0.921,0.611 c-0.438,1.039-1.267,1.501-1.93,1.708c-0.02-2.087-0.275-6.188-1.908-7.99c-0.258-0.285-0.658-0.395-1.026-0.287 c-0.369,0.11-0.643,0.422-0.702,0.802c-0.216,1.357-0.659,2.653-1.05,3.611c-2.353-4.05-2.901-8.4-2.907-8.449 c-0.04-0.332-0.243-0.622-0.542-0.772c-0.296-0.151-0.65-0.144-0.942,0.021c-0.211,0.119-4.966,2.884-4.8,9.686 c-0.85,0.066-2.246-0.033-3.348-1.16c-0.277-0.282-0.696-0.376-1.064-0.237c-0.371,0.139-0.625,0.482-0.648,0.877 c-0.146,2.438,3.365,7.914,5.303,10.735c-1.181-0.022-2.645-0.201-3.727-0.785c-0.354-0.192-0.788-0.151-1.102,0.101 c-0.313,0.252-0.445,0.668-0.334,1.055c1.301,4.533,6.557,12.276,12.719,14.608c-0.245,0.045-0.503,0.087-0.774,0.126 c-1.943,0.279-4.039-0.008-6.259-0.312c-2.905-0.396-5.909-0.808-8.72,0.101c-0.485,0.156-0.966,0.333-1.438,0.531 c-0.371,0.155-0.612,0.518-0.613,0.921c-0.001,0.402,0.24,0.766,0.611,0.922c0.968,0.409,1.623,1.575,1.999,2.55 c-1.947,0.065-5.378,0.387-6.924,1.786c-0.285,0.259-0.396,0.657-0.286,1.026c0.109,0.369,0.421,0.643,0.801,0.702 c1.409,0.224,2.835,1.348,3.685,2.134c-3.629,2.591-6.435,4.444-6.465,4.464c-0.321,0.213-0.492,0.591-0.439,0.973 c0.053,0.381,0.32,0.698,0.688,0.815c0.147,0.047,3.331,1.042,8.521,0.85c-0.574,1.062-1.331,2.533-1.998,4.066 c-0.13,0.299-0.106,0.644,0.064,0.922c0.171,0.277,0.467,0.455,0.793,0.475c2.15,0.131,5.135-1.877,6.602-2.992 c0.446,0.736,1.021,1.927,1.149,3.335c0.027,0.297,0.186,0.566,0.432,0.734c0.246,0.169,0.559,0.22,0.84,0.136 c3.373-0.968,5.251-5.297,6.76-8.776c0.283-0.653,0.551-1.272,0.811-1.822c1.644-3.482,3.314-6.741,4.405-7.006 c0.103-0.025,0.377-0.094,1.069,0.436c0.061,0.047,0.059,0.051,0.129,0.083c0.019,0.012,1.878,1.297,2.95,9.006 c0.576,4.146,0.443,6.899,0.337,9.112c-0.227,4.695-0.364,7.529,5.583,16.278c0.193,0.284,0.508,0.438,0.828,0.438 c0.193,0,0.389-0.056,0.562-0.173c0.456-0.311,0.575-0.933,0.265-1.39c-5.571-8.195-5.453-10.633-5.24-15.057 c0.111-2.296,0.249-5.153-0.354-9.484c-1.134-8.155-3.228-10.042-3.903-10.446c-0.953-0.712-1.839-0.96-2.698-0.746 c-1.856,0.45-3.271,2.861-5.741,8.096c-0.268,0.567-0.545,1.205-0.837,1.88c-1.146,2.64-2.529,5.831-4.442,7.149 c-0.575-2.261-1.87-3.799-1.935-3.875c-0.358-0.418-0.985-0.47-1.406-0.114c-1.066,0.9-2.851,2.153-4.35,2.793 c0.992-2.023,1.945-3.635,1.958-3.655c0.19-0.322,0.186-0.725-0.014-1.042s-0.547-0.5-0.933-0.465 c-3.167,0.27-5.71,0.061-7.382-0.19c1.368-0.933,3.331-2.292,5.513-3.866c0.228-0.164,0.376-0.417,0.408-0.695 c0.032-0.279-0.054-0.559-0.238-0.771c-0.078-0.09-1.424-1.622-3.243-2.67c1.576-0.377,3.636-0.497,4.991-0.462 c0.315,0.011,0.595-0.123,0.789-0.355c0.196-0.231,0.276-0.539,0.218-0.837c-0.024-0.124-0.478-2.354-1.862-3.937 c2.273-0.61,4.783-0.267,7.431,0.097c2.259,0.31,4.595,0.628,6.813,0.311c1.974-0.283,3.382-0.772,4.406-1.419 c1.76-0.058,3.45-0.628,5.004-1.702c2.546-1.762,4.801-3.804,6.893-6.244c0.591-0.689,1.159-1.439,1.708-2.165 c0.873-1.155,1.769-2.338,2.746-3.248c0.468,1.786,1.195,3.385,1.235,3.472c0.135,0.292,0.401,0.503,0.718,0.564 c0.316,0.062,0.643-0.033,0.878-0.254c1.086-1.025,2.871-2.428,4.461-3.24c-0.694,1.786-0.442,3.367-0.427,3.461 c0.088,0.512,0.539,0.875,1.072,0.829c3.336-0.286,5.754-0.078,7.32,0.195c-1.61,0.939-3.964,2.394-6.554,4.261 c-0.259,0.188-0.413,0.486-0.415,0.806c-0.002,0.318,0.148,0.619,0.405,0.81c0.138,0.102,2.605,1.918,5.147,3.041 c-2.117,0.594-5.196,0.904-7.207,0.969c-0.3,0.009-0.58,0.153-0.763,0.393s-0.248,0.548-0.178,0.84 c0.101,0.418,0.86,3.388,2.58,5.26c-5.663,1.496-15.974-3.466-19.777-6.503c-0.432-0.345-1.061-0.273-1.405,0.157 c-0.345,0.432-0.274,1.061,0.157,1.405c4.379,3.497,15.43,8.754,21.866,6.78c0.499-0.152,1.03-0.349,1.624-0.599 c0.371-0.156,0.612-0.52,0.612-0.921c0-0.402-0.24-0.766-0.611-0.922c-1.283-0.542-2.234-2.517-2.746-3.959 c2.431-0.163,7.404-0.691,9.217-2.334c0.285-0.259,0.396-0.658,0.286-1.026c-0.109-0.369-0.421-0.642-0.801-0.702 c-1.781-0.284-4.236-1.754-5.661-2.692c4.029-2.792,7.287-4.482,7.323-4.5c0.339-0.175,0.549-0.527,0.541-0.909 S-44.918,37.783-45.264,37.622z M-78.832,40.838c-0.356,1.98-0.608,3.384-1.732,4.348c-0.782-0.036-1.585-0.201-2.404-0.494 c-4.668-1.667-9.054-7.205-10.962-11.438c2.221,0.47,4.4,0.18,4.521,0.164c0.348-0.048,0.645-0.275,0.783-0.598 c0.138-0.323,0.097-0.694-0.109-0.979c-1.867-2.583-4.269-6.351-5.374-8.845c1.924,0.638,3.69,0.129,3.794,0.099 c0.454-0.136,0.751-0.572,0.71-1.044c-0.352-4.08,1.333-6.528,2.558-7.742c0.462,2.124,1.552,5.87,3.926,9.16 c0.2,0.278,0.525,0.437,0.872,0.413c0.342-0.021,0.649-0.216,0.814-0.517c0.041-0.073,0.68-1.247,1.252-2.908 c0.365,1.739,0.457,3.904,0.398,5.351c-0.011,0.268,0.086,0.529,0.271,0.725c0.184,0.195,0.438,0.309,0.706,0.315 c0.119,0.013,2.182,0.027,3.712-1.466c0.405,1.123,0.696,2.708,0,4.418c-0.376,0.921-0.678,1.597-0.954,2.217 c-0.58,1.298-1.081,2.42-1.906,5.025C-78.4,38.433-78.629,39.71-78.832,40.838z"></path>
    <path d="M-285.739,52.257h-28.268c-1.125,0-2.738,0-4.346-0.244c0.401-1.706,0.58-3.516,0.045-5.11 c-0.568-1.693-2.147-2.44-4.122-1.944c-1.562,0.392-2.648,1.412-2.979,2.8c-0.344,1.443,0.218,3.012,1.466,4.091 c0.893,0.772,1.946,1.299,3.087,1.656c-0.121,0.375-0.242,0.736-0.357,1.077l-0.122,0.363c-0.076,0.226-0.283,0.85-0.585,1.763 h-6.217c-0.552,0-1,0.447-1,1s0.448,1,1,1h5.555c-0.852,2.574-2.049,6.192-3.339,10.098h-4.758c-0.552,0-1,0.447-1,1s0.448,1,1,1 h4.097c-1.983,6.002-4.08,12.357-5.425,16.447l-3.699-11.033h4.075c0.552,0,1-0.447,1-1s-0.448-1-1-1h-4.745l-2.96-8.827h7.705 c0.552,0,1-0.447,1-1c0-0.553-0.448-1-1-1h-8.375l-1.72-5.13h7.805c0.552,0,1-0.447,1-1s-0.448-1-1-1h-8.475l-1.044-3.115 c-0.016-0.143-0.061-0.273-0.131-0.391l-1.325-3.953c-0.216-0.561-0.077-1.018,0.078-1.302c0.282-0.519,0.831-0.896,1.433-1.025 c0.392-0.052,9.608-1.339,10.361-6.708c0.517-3.679-3.028-6.055-4.932-7.331l-0.491-0.333c-4.774-3.301-6-7.833-6.313-9.883 c1.031,0.18,2.624,0.553,4.277,1.298c0.444,0.201,0.969,0.051,1.241-0.354c0.272-0.405,0.213-0.947-0.14-1.283 c-0.735-0.699-1.358-1.447-1.853-2.223c-2.01-3.156-2.113-6.994-2.022-8.836c3.024,0.87,5.848,2.955,8.043,5.962 c0.515,0.706,0.991,1.447,1.423,2.213c-0.135,0.267-0.266,0.537-0.391,0.81c-0.211,0.457-2.576,9.032-0.62,12.089 c0.495,0.774,1.257,1.2,2.144,1.2s1.648-0.426,2.144-1.2c1.955-3.053-0.407-11.632-0.619-12.09 c-0.125-0.272-0.256-0.542-0.391-0.809c0.433-0.769,0.909-1.509,1.423-2.214c2.192-3.003,5.013-5.092,8.038-5.973 c0.098,1.918-0.021,5.699-2.026,8.846c-0.495,0.777-1.118,1.525-1.853,2.224c-0.353,0.336-0.413,0.878-0.14,1.283 c0.271,0.404,0.795,0.554,1.241,0.354c1.62-0.73,3.181-1.103,4.213-1.287c-0.331,1.863-1.278,5.453-3.864,8.038 c-0.798,0.798-1.758,1.504-2.939,2.148c-0.1,0.068-2.464,1.694-2.938,4.37c-0.278,1.57,0.14,3.14,1.241,4.666 c0.324,0.447,0.949,0.549,1.396,0.225c0.448-0.323,0.549-0.948,0.225-1.396c-0.77-1.066-1.071-2.12-0.895-3.133 c0.293-1.697,1.817-2.874,2.061-3.053c1.244-0.679,2.341-1.49,3.263-2.412c4.149-4.148,4.596-10.294,4.613-10.554 c0.019-0.288-0.087-0.569-0.291-0.773c-0.204-0.203-0.487-0.308-0.773-0.291c-0.074,0.005-1.181,0.083-2.75,0.47 c2.758-4.51,2.246-9.965,2.107-11.069c-0.021-0.202-0.103-0.396-0.24-0.555c-0.234-0.269-0.595-0.394-0.944-0.326 c-3.929,0.757-7.608,3.251-10.359,7.021c-0.329,0.45-0.643,0.913-0.941,1.388c-0.298-0.475-0.612-0.938-0.941-1.388 c-2.755-3.776-6.437-6.264-10.367-7.006c-0.266-0.052-0.542,0.009-0.763,0.166c-0.221,0.157-0.37,0.396-0.411,0.664 c-0.039,0.254-0.911,6.193,2.095,11.105c-1.569-0.386-2.677-0.465-2.751-0.47c-0.463-0.033-0.892,0.266-1.026,0.714 c-0.191,0.643,0.159,8.073,7.238,12.967l0.515,0.349c1.754,1.176,4.407,2.954,4.064,5.392c-0.451,3.212-6.394,4.701-8.717,5.016 c-1.25,0.261-2.29,1.004-2.854,2.039c-0.503,0.926-0.57,1.982-0.202,2.935l0.931,2.776h-35.783c-0.552,0-1,0.447-1,1s0.448,1,1,1 h36.454l12.233,36.489c0.137,0.408,0.519,0.683,0.948,0.683c0.001,0,0.002,0,0.004,0c0.431-0.002,0.812-0.279,0.947-0.689 c2.192-6.704,11.004-33.354,11.608-35.159l0.121-0.359c0.134-0.399,0.276-0.822,0.417-1.264c1.609,0.261,3.298,0.3,4.893,0.3h28.268 c0.552,0,1-0.447,1-1S-285.187,52.257-285.739,52.257z M-332.661,21.647c0.592,2.385,1.472,7.684,0.443,9.201 c-0.143,0.211-0.271,0.253-0.442,0.253s-0.299-0.042-0.443-0.253C-334.133,29.327-333.248,24.016-332.661,21.647z M-320.304,51.571 c-0.877-0.281-1.686-0.677-2.33-1.233c-0.682-0.59-1-1.401-0.829-2.116c0.154-0.646,0.693-1.116,1.519-1.323 c0.267-0.066,0.491-0.095,0.681-0.095c0.812,0,0.985,0.516,1.059,0.736C-319.814,48.702-319.968,50.149-320.304,51.571z"></path>
    <g>
        <path d="M-454.375,57.138c0.767,0.591,1.57,0.896,2.347,0.896c0.144,0,0.287-0.011,0.429-0.031 c0.695-0.104,1.297-0.485,1.741-1.103c1.241-1.729,1.329-5.619,0.263-11.565c-1.343-7.493-4.357-15.163-5.527-17.512 c-0.218-0.438-0.695-0.686-1.174-0.616c-0.483,0.069-0.867,0.441-0.953,0.921c-0.087,0.488-2.123,12.046-1.35,19.066 C-458.087,51.84-456.548,55.464-454.375,57.138z M-455.618,32.443c1.3,3.401,2.916,8.378,3.796,13.292 c1.334,7.441,0.434,9.418,0.126,9.847c-0.12,0.168-0.199,0.18-0.236,0.185c-0.279,0.046-0.663-0.112-1.062-0.419 c-0.623-0.48-2.707-2.505-3.355-8.398C-456.818,42.695-456.163,36.456-455.618,32.443z"></path>
        <path d="M-434.831,47.553c-0.107-0.018-0.211-0.007-0.313,0.007c-2.26-7.089-3.818-16.46-4.613-27.956 c-0.035-0.507-0.445-0.907-0.952-0.93c-0.535-0.021-0.952,0.338-1.033,0.84c-0.015,0.091-1.352,8.274-4.198,16.555 c-0.15-0.561-0.297-1.11-0.439-1.642c-1.472-5.51-2.634-9.863-3.61-11.747c-0.254-0.49-0.856-0.682-1.348-0.428 c-0.49,0.254-0.682,0.857-0.428,1.348c0.876,1.691,2.07,6.164,3.454,11.343c3.496,13.088,6.461,23.249,10.137,25.105 c0.145,0.073,0.298,0.107,0.45,0.107c0.366,0,0.718-0.201,0.894-0.549c0.249-0.493,0.051-1.095-0.442-1.344 c-2.613-1.32-5.5-10.651-7.759-18.848c1.721-4.46,3.003-9.135,3.868-12.798c1.866,18.046,5.837,29.901,11.848,35.38 c-1.454,0.258-2.832,0.95-3.925,2.043c-1.014,1.014-2.361,1.572-3.795,1.572s-2.781-0.559-3.795-1.572 c-2.872-2.873-7.546-2.873-10.418,0c-1.014,1.014-2.361,1.572-3.795,1.572c-1.434,0-2.781-0.559-3.795-1.572 c-2.873-2.874-7.547-2.872-10.418,0c-1.014,1.014-2.362,1.572-3.795,1.572s-2.781-0.559-3.795-1.572 c-0.951-0.951-2.118-1.599-3.363-1.921c10.224-7.218,12.061-22.292,12.188-36.837c2.239,1.361,4.923,3.328,4.697,7.924l-0.09,1.871 c-0.449,9.41-0.72,15.089-3.95,19.544c-0.324,0.447-0.225,1.072,0.223,1.396c0.447,0.325,1.071,0.223,1.396-0.223 c3.58-4.938,3.877-11.178,4.328-20.623l0.09-1.869c0.303-6.187-3.786-8.62-6.229-10.074c-0.331-0.197-0.64-0.38-0.912-0.558 c-0.307-0.201-0.7-0.216-1.022-0.042c-0.323,0.175-0.524,0.512-0.524,0.879c0,8.194-0.465,16.667-2.644,23.762 c-16.11,3.014-26.519,9.372-26.519,16.197c0,10.014,19.386,17.857,44.134,17.857s44.134-7.844,44.134-17.857 C-410.912,56.198-419.63,50.397-434.831,47.553z M-455.046,79.326c-22.839,0-42.134-7.262-42.134-15.857 c0-5.584,9.508-11.157,23.779-14.014c-2.17,5.768-5.675,10.413-11.292,12.914c-0.188,0.071-0.373,0.151-0.556,0.239 c-0.488,0.234-0.701,0.814-0.48,1.309s0.795,0.724,1.295,0.517c0.169-0.069,0.337-0.142,0.503-0.215 c1.951-0.724,4.175-0.257,5.667,1.236c1.391,1.392,3.241,2.158,5.209,2.158s3.818-0.767,5.209-2.158 c2.092-2.091,5.497-2.093,7.59,0c1.391,1.392,3.241,2.158,5.209,2.158c1.968,0,3.818-0.767,5.209-2.158 c2.092-2.091,5.497-2.093,7.59,0c1.392,1.392,3.242,2.158,5.209,2.158s3.818-0.767,5.209-2.158 c1.569-1.566,3.942-2.006,5.958-1.117c0.06,0.028,0.122,0.057,0.182,0.084c0.499,0.225,1.086,0.007,1.318-0.488 c0.231-0.497,0.021-1.087-0.473-1.324c-0.064-0.03-0.128-0.061-0.193-0.089c-3.804-1.803-6.952-6.146-9.386-12.842 c13.479,2.656,21.51,7.783,21.51,13.79C-412.912,72.064-432.207,79.326-455.046,79.326z"></path>
    </g>
    <path d="M-552.797,68.646c-0.253-0.49-0.856-0.683-1.348-0.43l-29.232,15.117v-3.937l7.204-3.528 c0.116-0.031,0.223-0.087,0.322-0.158l7.54-3.693c0.211-0.031,0.409-0.124,0.562-0.278l13.861-7.267 c0.489-0.257,0.678-0.861,0.421-1.35c-0.256-0.49-0.86-0.677-1.35-0.422l-13.712,7.189l-5.533-2.682l6.242-3.026 c0.497-0.24,0.705-0.839,0.464-1.336c-0.241-0.496-0.84-0.703-1.336-0.463l-7.663,3.714l-5.764-2.794l6.124-2.967 c0.497-0.241,0.705-0.84,0.464-1.337c-0.24-0.497-0.838-0.702-1.336-0.464l-7.541,3.654l-7.541-3.654 c-0.496-0.239-1.095-0.034-1.336,0.464c-0.241,0.497-0.033,1.096,0.464,1.337l6.122,2.967l-6.117,2.965 c-0.001,0.001-0.002,0.002-0.003,0.003l-0.002,0l-7.557,3.662l-5.696-2.75l6.153-2.982c0.497-0.24,0.705-0.839,0.464-1.336 c-0.241-0.497-0.839-0.704-1.336-0.463l-7.577,3.673l-5.738-2.77l29.737-14.355l18.449,8.776c0.056,0.026,0.115,0.027,0.173,0.043 c0.058,0.016,0.109,0.045,0.171,0.05c0.013,0.001,0.025,0.001,0.037,0.002c0.003,0,0.005,0,0.008,0 c0.014,0.001,0.028,0.002,0.041,0.002c0.07,0,0.133-0.024,0.2-0.038c0.05-0.01,0.1-0.01,0.148-0.028 c0.084-0.031,0.156-0.083,0.229-0.135c0.03-0.021,0.065-0.033,0.092-0.058c0.094-0.085,0.171-0.188,0.228-0.304 c0.001-0.003,0.004-0.005,0.006-0.007c0.017-0.036,0.015-0.074,0.028-0.11c0.026-0.076,0.059-0.15,0.066-0.234 c0.784-9.097,5.31-17.105,5.355-17.185c0.194-0.339,0.172-0.76-0.055-1.078s-0.62-0.476-1.002-0.4 c-3.534,0.679-6.661,5.815-8.6,9.825c0.52-5.677,2.699-15.103,10.936-22.29c0.329-0.287,0.434-0.753,0.26-1.153 c-0.175-0.399-0.595-0.637-1.021-0.595c-8.337,0.87-13.328,6.274-16.085,10.788c1.275-6.355,3.868-13.48,9.02-19.12 c0.274-0.3,0.339-0.737,0.165-1.105c-0.176-0.367-0.558-0.602-0.962-0.567c-0.655,0.039-14.92,1.226-17.938,26.79 c-1.215-4.937-3.83-11.317-9.454-15.115c-0.354-0.239-0.82-0.227-1.162,0.03c-0.341,0.257-0.481,0.703-0.348,1.109 c0.042,0.125,3.446,10.681,2.854,19.711c-0.674-2.116-1.7-4.418-3.211-5.869c-0.304-0.293-0.759-0.362-1.139-0.173 c-0.378,0.189-0.597,0.595-0.546,1.015c0.342,2.825,0.629,10.548-2.081,12.511l-17.332,8.367c-0.346,0.167-0.565,0.517-0.565,0.9 s0.22,0.733,0.565,0.9l31.464,15.19v3.976l-30.591-14.926c-0.499-0.245-1.096-0.037-1.337,0.46c-0.242,0.496-0.036,1.095,0.46,1.337 l32.034,15.63c0.013,0.006,0.028,0.004,0.041,0.009c0.021,0.009,0.046,0.008,0.067,0.016c0.108,0.038,0.218,0.077,0.331,0.077 c0.099,0,0.192-0.041,0.287-0.07c0.035-0.011,0.073-0.011,0.107-0.026c0.021-0.009,0.045-0.005,0.065-0.016l30.688-15.869 C-552.736,69.74-552.543,69.137-552.797,68.646z M-562.433,41.865c-1.357,3.022-3.195,7.941-3.888,13.455l-2.939-1.398 c0.141-0.113,0.26-0.254,0.325-0.432C-567.969,50.834-565.325,44.82-562.433,41.865z M-569.255,16.887 c-5.838,7.827-7.802,17.476-8.392,24.518v0.001c-0.046,0.55,0.363,1.033,0.913,1.079c0.532,0.054,0.994-0.33,1.072-0.846 c0.287-0.98,3.748-12.024,14.029-14.995c-10.36,11.057-9.379,25.055-9.246,26.507l-12.044-5.729 C-582.125,25.591-573.786,18.908-569.255,16.887z M-592.587,29.353c5.862,5.86,6.978,15.353,7.175,17.88l-5.527,2.668 C-589.602,42.73-591.394,33.953-592.587,29.353z M-595.207,45.093c0.993,2.247,1.515,4.824,1.722,6.037l-2.669,1.289 C-595.356,50.149-595.181,47.337-595.207,45.093z M-584.376,77.658l-13.701-6.614l6.13-2.971c0.001-0.001,0.002-0.002,0.004-0.003 l7.537-3.653l7.541,3.654l6.063,2.939l-5.654,2.769l-7.513-3.642c-0.497-0.241-1.094-0.035-1.336,0.463 c-0.241,0.497-0.033,1.096,0.464,1.336l6.106,2.959L-584.376,77.658z"></path>
    <g>
        <path d="M83.373,80.687h-4.979c-0.981,0-1.78-0.797-1.78-1.779v-53.9c0-0.21-0.069-0.413-0.197-0.578 l-5.109-6.667c-0.361-0.472-1.149-0.472-1.509,0l-5.109,6.667c-0.128,0.165-0.197,0.368-0.197,0.578v12.369h-5.574 c-0.526,0-0.952,0.426-0.952,0.952s0.426,0.952,0.952,0.952h5.574v5.037h-5.574c-0.526,0-0.952,0.426-0.952,0.952 c0,0.526,0.426,0.952,0.952,0.952h5.574v11.146h-5.574c-0.526,0-0.952,0.426-0.952,0.952c0,0.526,0.426,0.952,0.952,0.952h5.574 v5.035h-5.574c-0.526,0-0.952,0.426-0.952,0.952s0.426,0.952,0.952,0.952h5.574v12.993c0,0.82-0.665,1.485-1.485,1.485h-5.461 c-0.82,0-1.485-0.665-1.485-1.485V25.009c0-0.21-0.069-0.413-0.197-0.578l-5.109-6.667c-0.361-0.472-1.149-0.472-1.509,0 l-5.109,6.667c-0.128,0.165-0.197,0.368-0.197,0.578v12.369h-5.574c-0.526,0-0.952,0.426-0.952,0.952s0.426,0.952,0.952,0.952 h5.574v5.037h-5.574c-0.526,0-0.952,0.426-0.952,0.952c0,0.526,0.426,0.952,0.952,0.952h5.574v11.146h-5.574 c-0.526,0-0.952,0.426-0.952,0.952c0,0.526,0.426,0.952,0.952,0.952h5.574v5.035h-5.574c-0.526,0-0.952,0.426-0.952,0.952 s0.426,0.952,0.952,0.952h5.574v12.993c0,0.82-0.665,1.485-1.485,1.485h-5.462c-0.818,0-1.483-0.665-1.483-1.485V25.009 c0-0.21-0.069-0.413-0.197-0.578l-5.109-6.667c-0.361-0.472-1.149-0.472-1.509,0l-5.109,6.667 c-0.128,0.165-0.197,0.368-0.197,0.578v12.369h-7.304c-1.275,0-2.312,1.037-2.312,2.312v4.219c0,1.275,1.037,2.312,2.312,2.312 h7.304v11.146h-7.304c-1.275,0-2.312,1.037-2.312,2.312v4.217c0,1.275,1.037,2.312,2.312,2.312h7.304v12.7 c0,0.981-0.799,1.779-1.781,1.779h-4.979c-0.526,0-0.952,0.426-0.952,0.952s0.426,0.952,0.952,0.952h4.979 c2.031,0,3.684-1.652,3.684-3.682V25.332l4.158-5.425l4.158,5.425v53.87c0,1.868,1.519,3.388,3.386,3.388h5.462 c1.868,0,3.388-1.52,3.388-3.388v-53.87L50,19.907l4.158,5.425v53.87c0,1.868,1.52,3.388,3.388,3.388h5.461 c1.868,0,3.388-1.52,3.388-3.388v-53.87l4.158-5.425l4.158,5.425v53.576c0,2.03,1.652,3.682,3.684,3.682h4.979 c0.526,0,0.952-0.426,0.952-0.952S83.899,80.687,83.373,80.687z M23.387,64.305h-7.304c-0.225,0-0.409-0.184-0.409-0.409v-4.217 c0-0.225,0.184-0.409,0.409-0.409h7.304V64.305z M23.387,44.318h-7.304c-0.225,0-0.409-0.184-0.409-0.409V39.69 c0-0.225,0.184-0.409,0.409-0.409h7.304V44.318z"></path>
        <path d="M83.916,57.367h-4.444c-0.526,0-0.952,0.426-0.952,0.952c0,0.526,0.426,0.952,0.952,0.952h4.444 c0.227,0,0.411,0.184,0.411,0.409v4.217c0,0.225-0.184,0.409-0.411,0.409h-4.444c-0.526,0-0.952,0.426-0.952,0.952 s0.426,0.952,0.952,0.952h4.444c1.275,0,2.314-1.037,2.314-2.312v-4.217C86.23,58.404,85.191,57.367,83.916,57.367z"></path>
        <path d="M83.916,37.378h-4.444c-0.526,0-0.952,0.426-0.952,0.952s0.426,0.952,0.952,0.952h4.444 c0.227,0,0.411,0.184,0.411,0.409v4.219c0,0.225-0.184,0.409-0.411,0.409h-4.444c-0.526,0-0.952,0.426-0.952,0.952 c0,0.526,0.426,0.952,0.952,0.952h4.444c1.275,0,2.314-1.037,2.314-2.312V39.69C86.23,38.415,85.191,37.378,83.916,37.378z"></path>
    </g>
</svg>
