<svg class="landscapeButton-icon" fill="#fff" version="1.1" xmlns="http://www.w3.org/2000/svg" x="0px" y="0px" viewBox="0 0 100 100"
     preserveAspectRatio="xMidYMid meet">
    <path d="M79.363,50.12c-4.813-1.728-10.314-1.09-16.358,1.895c-1.256,0.621-2.495,1.391-3.808,2.208 c-2.689,1.672-5.462,3.38-8.308,3.689V45.106c0-0.336-0.189-0.642-0.487-0.793c-0.298-0.151-0.659-0.121-0.928,0.079 c-0.028,0.019-2.699,1.963-6.561,1.963c-2.014,0-4.115-1.003-5.486-2.618c-0.987-1.164-2.061-3.173-1.57-6.136 c0.926-5.59,1.331-16.37-0.88-22.513c2.609,2.227,5.199,5.752,7.233,9.235c-0.996,2.663-1.858,5.425-2.391,8.048 c-0.262,1.295,0.156,3.242,1.466,4.456c1.02,0.947,2.391,1.239,3.846,0.828c2.562-0.723,3.007-3.702,2.503-5.586 c-0.545-2.044-1.782-4.931-3.451-7.916c2.052-5.301,4.573-10.156,5.817-12.447c1.244,2.291,3.765,7.145,5.817,12.447 c-1.669,2.984-2.908,5.873-3.452,7.915c-0.503,1.885-0.059,4.865,2.503,5.587c1.462,0.413,2.824,0.12,3.848-0.828 c1.308-1.214,1.726-3.161,1.464-4.455c-0.533-2.623-1.395-5.385-2.389-8.048c2.032-3.483,4.622-7.008,7.231-9.235 c-2.21,6.144-1.806,16.924-0.88,22.512c0.491,2.963-0.583,4.972-1.57,6.136c-1.371,1.615-3.471,2.618-5.486,2.618 c-0.491,0-0.888,0.397-0.888,0.888s0.397,0.888,0.888,0.888c2.559,0,5.116-1.214,6.841-3.245c1.738-2.05,2.437-4.741,1.967-7.575 c-1.294-7.814-1.05-20.834,2.288-24.291c0.293-0.304,0.333-0.772,0.094-1.12c-0.239-0.349-0.69-0.483-1.079-0.314 c-3.664,1.558-7.394,6.007-10.234,10.612c-2.738-6.762-5.994-12.421-6.195-12.768c-0.158-0.274-0.451-0.443-0.769-0.443 c-0.317,0-0.609,0.169-0.769,0.443c-0.201,0.347-3.458,6.004-6.197,12.767c-2.84-4.605-6.568-9.053-10.234-10.611 c-0.387-0.169-0.84-0.035-1.079,0.314c-0.239,0.348-0.2,0.816,0.094,1.12c3.338,3.457,3.582,16.477,2.288,24.291 c-0.47,2.835,0.229,5.526,1.967,7.575c1.724,2.032,4.282,3.245,6.841,3.245c2.691,0,4.871-0.815,6.2-1.477v11.257 c-2.847-0.309-5.619-2.017-8.308-3.688c-1.313-0.816-2.554-1.587-3.81-2.208c-6.043-2.985-11.544-3.625-16.358-1.895 c-0.406,0.147-0.649,0.563-0.574,0.989c0.073,0.425,0.442,0.736,0.874,0.736c3.541,0.001,5.711,3.229,7.81,6.351 c0.748,1.113,1.456,2.164,2.221,3.069c4.715,5.577,9.288,4.44,14.582,3.122c0.697-0.173,1.417-0.353,2.165-0.525 c0.345-0.083,0.706-0.003,0.982,0.218c0.269,0.213,0.416,0.52,0.416,0.865v25.18c0,0.491,0.397,0.888,0.888,0.888 c0.491,0,0.888-0.397,0.888-0.888v-25.18c0-0.884-0.396-1.706-1.088-2.255c-0.704-0.559-1.61-0.762-2.486-0.559 c-0.758,0.174-1.489,0.357-2.195,0.533c-5.295,1.317-8.794,2.189-12.796-2.545c-0.703-0.831-1.383-1.842-2.103-2.914 c-1.554-2.31-3.249-4.832-5.628-6.172c3.513-0.364,7.41,0.497,11.613,2.575c1.18,0.583,2.385,1.332,3.661,2.125 c3.073,1.911,6.252,3.867,9.775,3.995c2.177,2.006,7.185,4.661,12.071,4.661c0.182,0,0.364-0.004,0.545-0.011 c2.849-0.119,5.128-1.166,6.775-3.113c0.765-0.905,1.473-1.956,2.221-3.069c2.099-3.123,4.269-6.35,7.81-6.351 c0.432,0,0.802-0.311,0.874-0.736C80.012,50.683,79.769,50.266,79.363,50.12z M58.439,32.724c0.16,0.783-0.151,2.077-0.932,2.8 c-0.566,0.524-1.289,0.664-2.156,0.421c-1.518-0.429-1.506-2.529-1.268-3.42c0.43-1.613,1.341-3.799,2.562-6.13 C57.391,28.524,58.025,30.678,58.439,32.724z M43.356,26.394c1.221,2.331,2.132,4.518,2.561,6.131 c0.239,0.892,0.25,2.992-1.268,3.42c-0.873,0.244-1.594,0.102-2.156-0.421c-0.781-0.724-1.091-2.017-0.932-2.801 C41.975,30.678,42.609,28.524,43.356,26.394z M69.778,57.204c-0.72,1.071-1.4,2.083-2.103,2.914 c-1.312,1.552-3.159,2.387-5.491,2.484c-3.609,0.162-7.507-1.451-9.96-3.092c2.795-0.599,5.387-2.209,7.911-3.779 c1.275-0.792,2.479-1.541,3.657-2.123c4.207-2.078,8.1-2.941,11.613-2.575C73.028,52.372,71.333,54.894,69.778,57.204z"></path>
</svg>
