<svg class="landscapeButton-icon" version="1.1" xmlns="http://www.w3.org/2000/svg" x="0px" y="0px" viewBox="0 0 100 100"
     preserveAspectRatio="xMidYMid meet">
    <g>
        <path d="M86.804,51.27c-0.011-10.376-5.731-18.652-5.976-19c-0.167-0.237-0.437-0.378-0.727-0.378 c-0.29,0-0.562,0.142-0.729,0.379c-0.075,0.108-1.53,2.21-2.994,5.589c-1.73-5.575-4.318-9.321-4.443-9.499 c-0.167-0.239-0.439-0.38-0.729-0.38s-0.562,0.141-0.729,0.379c-0.075,0.108-1.53,2.21-2.994,5.589 c-1.73-5.575-4.318-9.321-4.443-9.499c-0.167-0.239-0.439-0.38-0.729-0.38s-0.562,0.141-0.729,0.379 c-0.075,0.108-1.53,2.21-2.994,5.589c-1.73-5.575-4.318-9.321-4.443-9.499c-0.167-0.238-0.439-0.38-0.729-0.38 s-0.56,0.141-0.727,0.378c-0.064,0.091-1.332,1.916-2.691,4.898c-1.358-2.982-2.627-4.806-2.691-4.898 c-0.165-0.238-0.437-0.379-0.727-0.379s-0.562,0.142-0.729,0.38c-0.125,0.179-2.713,3.924-4.445,9.499 c-1.462-3.38-2.918-5.481-2.993-5.589c-0.333-0.475-1.124-0.476-1.457,0.001c-0.125,0.179-2.713,3.924-4.445,9.499 c-1.462-3.38-2.918-5.481-2.993-5.589c-0.333-0.475-1.124-0.476-1.457,0.001c-0.125,0.179-2.713,3.924-4.445,9.499 c-1.462-3.38-2.918-5.481-2.993-5.589c-0.167-0.237-0.439-0.379-0.729-0.379s-0.56,0.141-0.727,0.378 c-0.245,0.348-5.977,8.64-5.977,19.031c0,0.005,0.002,0.008,0.003,0.013c-0.02,0.348,0.166,0.689,0.499,0.85L49.273,69.34v8.202 L14.469,60.825c-0.442-0.21-0.972-0.027-1.187,0.416c-0.212,0.442-0.026,0.972,0.416,1.185l36.078,17.328 c0.006,0.003,0.013,0.002,0.019,0.004c0.112,0.051,0.235,0.083,0.366,0.083c0.132,0,0.255-0.033,0.368-0.085 c0.007-0.003,0.014-0.002,0.021-0.005l35.756-17.418c0.305-0.149,0.5-0.459,0.5-0.799V51.274 C86.805,51.273,86.804,51.272,86.804,51.27z M19.899,34.45c0.767,1.298,2.004,3.604,3.039,6.53c0.132,0.374,0.496,0.621,0.888,0.59 c0.394-0.023,0.727-0.303,0.815-0.687c1.088-4.728,3.081-8.526,4.152-10.343c0.767,1.298,2.004,3.604,3.039,6.529 c0.134,0.373,0.501,0.612,0.888,0.59c0.394-0.023,0.727-0.303,0.815-0.687c1.088-4.728,3.081-8.526,4.152-10.343 c0.767,1.298,2.004,3.604,3.039,6.529c0.134,0.374,0.507,0.622,0.888,0.59c0.394-0.023,0.727-0.303,0.815-0.687 c1.089-4.729,3.083-8.529,4.153-10.345c0.658,1.109,1.66,2.962,2.59,5.319c0.267,0.68,1.384,0.678,1.652,0 c0.926-2.351,1.931-4.206,2.59-5.319c1.07,1.816,3.064,5.616,4.152,10.345c0.088,0.384,0.42,0.664,0.815,0.687 c0.396,0.03,0.756-0.216,0.888-0.59c1.036-2.925,2.274-5.231,3.041-6.529c1.07,1.817,3.062,5.616,4.15,10.343 c0.088,0.384,0.42,0.664,0.815,0.687c0.401,0.021,0.756-0.217,0.888-0.59c1.036-2.925,2.274-5.231,3.041-6.529 c1.07,1.817,3.062,5.616,4.15,10.343c0.088,0.384,0.42,0.664,0.815,0.687c0.406,0.03,0.756-0.216,0.888-0.59 c1.037-2.927,2.274-5.234,3.041-6.531c1.49,2.517,4.734,8.868,4.897,16.286l-34.841,17.06L14.997,50.819 C15.138,43.38,18.405,36.981,19.899,34.45z M85.029,60.98L51.05,77.532v-8.196l33.979-16.638V60.98z"></path>
        <path d="M37.938,45.194c0.487,0.121,0.956-0.186,1.067-0.664c0.616-2.657,1.416-4.845,2.002-6.259 c0.765,1.87,1.901,5.091,2.516,8.971c0.068,0.42,0.422,0.734,0.847,0.749c0.394,0.015,0.802-0.274,0.897-0.687 c0.619-2.679,1.421-4.898,2.007-6.332c0.763,1.872,1.894,5.086,2.509,8.955c0.068,0.42,0.422,0.733,0.847,0.748 c0.415,0.012,0.8-0.273,0.897-0.688c0.618-2.679,1.421-4.898,2.006-6.333c0.765,1.872,1.896,5.086,2.509,8.955 c0.069,0.438,0.448,0.749,0.876,0.749c0.047,0,0.094-0.003,0.141-0.011c0.484-0.076,0.815-0.532,0.739-1.016 c-1.024-6.456-3.374-11.07-3.475-11.264c-0.153-0.296-0.456-0.481-0.789-0.481c-0.333,0-0.638,0.186-0.789,0.482 c-0.054,0.104-0.999,1.963-1.955,4.928c-1.129-4.482-2.646-7.457-2.725-7.612c-0.153-0.296-0.456-0.481-0.789-0.481 c-0.333,0-0.638,0.186-0.791,0.483c-0.052,0.104-0.998,1.962-1.953,4.926c-1.128-4.482-2.646-7.456-2.725-7.611 c-0.153-0.295-0.455-0.481-0.786-0.481c-0.33,0.038-0.637,0.181-0.791,0.476c-0.073,0.139-1.797,3.464-2.951,8.431 C37.162,44.605,37.461,45.083,37.938,45.194z"></path>
        <path d="M47.27,51.626c-0.333,0-0.638,0.186-0.791,0.483c-0.071,0.141-1.79,3.524-2.946,8.517 c-0.111,0.478,0.187,0.955,0.666,1.066c0.474,0.115,0.954-0.188,1.065-0.665c0.619-2.679,1.421-4.897,2.006-6.332 c0.765,1.875,1.898,5.094,2.51,8.954c0.069,0.437,0.448,0.749,0.876,0.749c0.047,0,0.094-0.003,0.141-0.011 c0.486-0.076,0.815-0.532,0.739-1.017C50.51,56.914,48.16,52.3,48.059,52.107C47.906,51.811,47.603,51.626,47.27,51.626z"></path>
        <path d="M59.575,46.607c0.482,0.113,0.954-0.187,1.065-0.666c0.618-2.678,1.419-4.896,2.006-6.331 c0.765,1.875,1.898,5.093,2.51,8.954c0.068,0.42,0.422,0.733,0.847,0.748c0.42,0.035,0.8-0.273,0.897-0.688 c0.619-2.686,1.424-4.91,2.011-6.344c0.775,1.876,1.927,5.113,2.538,9.008c0.069,0.438,0.448,0.75,0.876,0.75 c0.047,0,0.092-0.003,0.139-0.01c0.486-0.076,0.817-0.531,0.741-1.016c-1.02-6.495-3.412-11.119-3.513-11.312 c-0.154-0.295-0.489-0.446-0.791-0.476c-0.331,0.002-0.635,0.187-0.788,0.483c-0.052,0.104-0.998,1.962-1.952,4.925 c-1.129-4.48-2.646-7.456-2.725-7.61c-0.153-0.296-0.456-0.481-0.789-0.481c-0.333,0-0.638,0.186-0.789,0.482 c-0.073,0.141-1.794,3.524-2.948,8.518C58.8,46.019,59.096,46.496,59.575,46.607z"></path>
        <path d="M26.628,53.468c0.482,0.111,0.954-0.187,1.065-0.666c0.618-2.679,1.421-4.898,2.006-6.333 c0.765,1.872,1.896,5.086,2.51,8.956c0.068,0.42,0.422,0.733,0.847,0.748c0.42,0.017,0.8-0.274,0.897-0.688 c0.619-2.686,1.424-4.91,2.011-6.344c0.775,1.876,1.927,5.113,2.538,9.009c0.069,0.438,0.448,0.75,0.876,0.75 c0.047,0,0.092-0.003,0.139-0.01c0.486-0.076,0.817-0.531,0.741-1.016c-1.02-6.496-3.412-11.12-3.513-11.313 c-0.154-0.293-0.458-0.476-0.788-0.476c-0.002,0-0.002,0-0.003,0c-0.331,0.002-0.635,0.187-0.788,0.483 c-0.052,0.104-0.998,1.962-1.952,4.926c-1.129-4.482-2.646-7.456-2.725-7.611c-0.153-0.296-0.456-0.481-0.789-0.481 s-0.638,0.186-0.789,0.482c-0.073,0.142-1.794,3.525-2.948,8.519C25.853,52.881,26.149,53.357,26.628,53.468z"></path>
    </g>
</svg>
