<svg class="landscapeButton-icon" fill="#fff" version="1.1" xmlns="http://www.w3.org/2000/svg" x="0px" y="0px" viewBox="0 0 100 100"
     preserveAspectRatio="xMidYMid meet">
    <path d="M81.515,52.017c0.866-1.7,1.799-4.165,1.848-4.292c0.115-0.305,0.054-0.649-0.16-0.896 c-0.213-0.246-0.546-0.357-0.864-0.285c-1.641,0.364-6.043,1.345-8.511,1.942c0.694-1.937,1.707-4.489,1.721-4.522 c0.179-0.449-0.035-0.959-0.481-1.147c-0.241-0.101-0.503-0.088-0.723,0.014c-0.154,0.041-0.465,0.098-0.89,0.181 c-1.57,0.306-4.492,0.877-7.26,1.836c-1.197,0.416-2.401,0.956-3.563,1.479c-2.81,1.262-5.489,2.46-8.258,2.169 c2.46-2.407,4.323-5.876,5.796-9.027c1.868-3.996,2.732-8.405,3.393-12.225c0.056-0.312-0.062-0.631-0.305-0.834 c-0.243-0.203-0.579-0.263-0.874-0.152l-4.566,1.673l1.955-8.452c0.076-0.328-0.04-0.671-0.3-0.885 c-0.258-0.216-0.619-0.266-0.925-0.128l-4.197,1.855c-0.911-3.295-2.108-6.527-3.567-9.624c-0.154-0.325-0.496-0.535-0.847-0.509 c-0.359,0.017-0.671,0.25-0.793,0.589l-3.419,9.577l-4.27-1.889c-0.305-0.137-0.668-0.088-0.925,0.128 c-0.26,0.214-0.375,0.556-0.3,0.884l1.952,8.458l-4.575-1.664c-0.312-0.115-0.661-0.045-0.907,0.182 c-0.243,0.226-0.342,0.569-0.252,0.89c1.428,5.146,2.906,10.468,6.039,15.019c2.113,3.07,4.904,5.454,7.904,6.804 c-0.59,0.265-1.207,0.448-1.853,0.536c-2.627,0.37-5.071-1.247-7.434-2.8c-0.966-0.635-1.967-1.292-2.961-1.799 c-5.491-2.8-12.626-2.372-12.923-2.356c-0.285,0.018-0.541,0.172-0.694,0.412c-0.151,0.24-0.179,0.539-0.075,0.803 c0.014,0.033,1.027,2.585,1.721,4.522c-2.469-0.598-6.87-1.578-8.511-1.942c-0.321-0.072-0.652,0.038-0.864,0.285 c-0.213,0.247-0.274,0.591-0.16,0.896c0.049,0.127,0.963,2.542,1.822,4.241c-4.054,1.035-9.314,3.403-9.557,3.513 C8.584,55.623,8.38,55.94,8.38,56.289c0,1.184,7.21,3.467,10.106,4.311c-0.866,1.7-1.799,4.165-1.848,4.292 c-0.115,0.305-0.054,0.649,0.16,0.896c0.212,0.245,0.545,0.351,0.864,0.285c1.641-0.364,6.043-1.345,8.511-1.942 c-0.694,1.937-1.707,4.489-1.721,4.522c-0.177,0.448,0.033,0.956,0.477,1.146c0.302,0.129,0.642,0.075,0.888-0.112 c0.304-0.102,1.169-0.26,1.511-0.323c0.288-0.052,0.512-0.096,0.588-0.118c1.979-0.563,3.947-1.252,5.848-2.047 c2.731-1.141,5.031-2.776,7.255-4.356c1.067-0.759,2.141-1.523,3.277-2.245c1.06-0.672,2.13-0.791,3.086-0.338 c1.119,0.528,1.931,1.792,2.117,3.299c0.458,3.707-1.471,6.898-3.515,10.276c-1.084,1.792-2.205,3.645-2.92,5.569 c-1.126,3.031-1.384,6.381-0.744,9.69c0.083,0.424,0.455,0.719,0.871,0.719c0.057,0,0.113-0.005,0.17-0.016 c0.482-0.093,0.796-0.559,0.704-1.041c-0.579-2.988-0.349-6.008,0.664-8.733c0.656-1.767,1.685-3.467,2.774-5.268 c2.11-3.488,4.292-7.095,3.758-11.414c-0.264-2.136-1.43-3.889-3.119-4.687c-1.518-0.714-3.22-0.557-4.8,0.446 c-1.161,0.738-2.261,1.52-3.353,2.296c-2.243,1.594-4.361,3.1-6.908,4.165c-1.839,0.769-3.739,1.434-5.64,1.975 c-0.071,0.017-0.231,0.045-0.432,0.082c-0.09,0.016-0.179,0.032-0.262,0.048c0.559-1.449,1.327-3.489,1.639-4.556 c0.095-0.321-0.01-0.664-0.253-0.893c-0.246-0.23-0.611-0.297-0.921-0.185c-0.465,0.168-4.825,1.165-8.298,1.942 c0.51-1.235,1.175-2.736,1.641-3.43c0.167-0.247,0.198-0.561,0.083-0.836c-0.115-0.275-0.359-0.474-0.651-0.531 c-2.623-0.51-6.327-1.959-8.503-2.875c2.196-0.915,5.89-2.355,8.503-2.863c0.291-0.056,0.536-0.256,0.651-0.531 c0.115-0.275,0.083-0.589-0.083-0.836c-0.467-0.694-1.131-2.195-1.641-3.43c3.473,0.777,7.831,1.774,8.289,1.939 c0.319,0.128,0.678,0.063,0.928-0.166c0.252-0.229,0.352-0.582,0.255-0.908c-0.347-1.184-1.256-3.569-1.816-5.013 c2.217,0.007,6.991,0.268,10.765,2.192c0.909,0.463,1.825,1.064,2.795,1.702c2.512,1.65,5.357,3.514,8.648,3.076 c1.397-0.19,2.665-0.725,3.818-1.504c0.101,0.027,0.201,0.053,0.302,0.077c3.754,0.927,7.163-0.607,10.459-2.09 c1.181-0.53,2.295-1.031,3.419-1.42c2.38-0.826,4.917-1.358,6.514-1.673c-0.562,1.455-1.358,3.563-1.678,4.653 c-0.095,0.321,0.01,0.664,0.253,0.893c0.243,0.23,0.604,0.298,0.921,0.185c0.463-0.167,4.825-1.164,8.298-1.942 c-0.51,1.235-1.175,2.736-1.641,3.43c-0.167,0.247-0.198,0.561-0.083,0.836c0.115,0.275,0.359,0.474,0.651,0.531 c2.623,0.51,6.327,1.959,8.503,2.876c-2.196,0.914-5.89,2.354-8.503,2.862c-0.291,0.056-0.536,0.256-0.651,0.531 s-0.083,0.589,0.083,0.836c0.467,0.694,1.131,2.195,1.641,3.43c-3.473-0.778-7.833-1.774-8.289-1.939 c-0.316-0.126-0.675-0.061-0.928,0.167c-0.252,0.228-0.35,0.581-0.255,0.907c0.314,1.074,1.091,3.136,1.652,4.587 c-2.33-0.641-6.749-2.042-10.68-4.334c-3.279-1.914-5.69-4.81-7.137-6.903c-0.278-0.405-0.833-0.502-1.235-0.226 c-0.404,0.279-0.505,0.833-0.226,1.236c1.547,2.241,4.141,5.349,7.703,7.428c5.869,3.422,12.562,4.892,12.845,4.953 c0.321,0.065,0.652-0.045,0.866-0.294c0.212-0.251,0.269-0.598,0.147-0.903c-0.014-0.033-1.027-2.585-1.721-4.522 c2.469,0.597,6.87,1.578,8.511,1.942c0.316,0.065,0.651-0.04,0.864-0.285c0.213-0.247,0.274-0.591,0.16-0.896 c-0.049-0.127-0.963-2.542-1.822-4.241c4.054-1.035,9.314-3.403,9.557-3.513c0.317-0.144,0.522-0.461,0.522-0.809 C91.62,55.145,84.41,52.861,81.515,52.017z M52.267,48.002c-3.13-1.072-6.112-3.445-8.315-6.646 c-2.639-3.83-4.067-8.348-5.328-12.823l4.488,1.633c0.305,0.113,0.649,0.047,0.892-0.169c0.245-0.216,0.35-0.547,0.278-0.865 l-1.92-8.321l3.52,1.558c0.226,0.101,0.484,0.101,0.71,0.004c0.227-0.097,0.402-0.285,0.486-0.518l2.998-8.396 c1.148,2.699,2.097,5.488,2.826,8.32c0.066,0.252,0.238,0.463,0.474,0.578c0.234,0.114,0.507,0.117,0.746,0.012l3.52-1.557 l-1.924,8.32c-0.073,0.318,0.033,0.651,0.278,0.867c0.245,0.217,0.588,0.279,0.893,0.167l4.656-1.706 c-0.614,3.325-1.445,6.969-2.984,10.258C56.984,42.09,54.949,45.853,52.267,48.002z"></path>
</svg>
