<svg class="landscapeButton-icon" fill="#fff" version="1.1" xmlns="http://www.w3.org/2000/svg" x="0px" y="0px" viewBox="0 0 100 100"
     preserveAspectRatio="xMidYMid meet">
    <g>
        <path d="M46.248,58.589c0.278,1.733,0.566,3.525,1.256,5.204c0.35,0.854,1.601,2.715,3.045,2.715 c0.005,0,0.01,0,0.017,0c0.451-0.005,1.284-0.201,1.77-1.46c0.819-2.111-0.002-5.545-0.491-7.598l-0.869,0.186l-0.859,0.226 c0.383,1.606,1.18,4.949,0.562,6.545c-0.082,0.211-0.151,0.298-0.151,0.321c-0.317-0.062-1.091-0.908-1.381-1.611 c-0.612-1.489-0.883-3.177-1.145-4.809l-0.108-0.66c-0.432-2.614,0.009-2.934,0.154-2.969c0.075-0.018,0.142-0.028,0.208-0.028 c0.127,0,0.241,0.035,0.359,0.108c0.267,0.163,0.947,0.789,1.495,3.084l0.864-0.206l0.864-0.206 c-0.524-2.194-1.275-3.563-2.299-4.188c-0.578-0.352-1.239-0.45-1.915-0.289c-2.219,0.543-1.685,3.771-1.461,5.118L46.248,58.589z"></path>
        <path d="M48.629,37.068c2.387,5.844,4.856,11.887,6.225,18.167l0.042,0.19 c0.961,4.411,2.415,11.076-0.496,14.673c-0.309,0.381-0.25,0.94,0.132,1.249c0.165,0.133,0.363,0.198,0.559,0.198 c0.258,0,0.515-0.113,0.69-0.33c3.447-4.258,1.884-11.426,0.85-16.168l-0.042-0.19c-1.4-6.43-3.898-12.546-6.315-18.46 l-0.283-0.692c-3.135-7.679-2.647-17.474,1.272-25.562c0.213-0.441,0.029-0.972-0.413-1.187c-0.442-0.211-0.972-0.03-1.187,0.413 c-4.131,8.528-4.636,18.876-1.317,27.007L48.629,37.068z"></path>
        <path d="M43.063,47.298c-0.05-3.269-0.578-5.814-1.612-7.776c-0.229-0.435-0.77-0.599-1.201-0.372 c-0.434,0.229-0.6,0.766-0.371,1.2c0.9,1.71,1.362,3.992,1.407,6.976c0.026,1.616-0.029,3.272-0.085,4.873 c-0.101,2.983-0.205,6.068,0.219,9.269c0.449,3.375,1.126,8.477,4.642,10.436c0.137,0.076,0.285,0.113,0.432,0.113 c0.311,0,0.614-0.164,0.775-0.455c0.239-0.429,0.085-0.97-0.344-1.208c-2.738-1.526-3.343-6.095-3.763-9.261 c-0.385-2.913-0.285-5.923-0.186-8.834C43.032,50.636,43.089,48.958,43.063,47.298z"></path>
        <path d="M26.745,34.8c0.919,0.985,1.985,1.753,3.017,2.496c1.093,0.786,2.123,1.528,2.961,2.493 c1.615,1.862,2.895,4.283,3.777,7.074c0.534,3.281,1.088,6.673,0.241,10.474c-0.245,1.102-0.567,2.293-0.935,3.445 c-0.149,0.468,0.109,0.967,0.578,1.116c0.088,0.029,0.18,0.042,0.269,0.042c0.376,0,0.727-0.241,0.847-0.618 c0.382-1.201,0.72-2.446,0.977-3.598c0.921-4.135,0.338-7.699-0.252-11.268c-0.984-3.148-2.384-5.782-4.158-7.831 c-0.975-1.121-2.139-1.959-3.267-2.77c-1.006-0.724-1.955-1.408-2.753-2.265c-1.695-1.818-2.895-4.145-3.475-6.727 c-0.108-0.479-0.576-0.779-1.062-0.672c-0.479,0.108-0.781,0.583-0.673,1.061C23.485,30.141,24.837,32.751,26.745,34.8z"></path>
        <path d="M31.351,30.656c0.611,0.508,1.244,0.991,1.877,1.475c1.62,1.235,3.151,2.401,4.297,3.97 c0.17,0.233,0.439,0.364,0.716,0.364c0.087,0,0.173-0.012,0.258-0.038c0.363-0.11,0.614-0.437,0.63-0.815 c0.088-2.249,0.368-4.396,0.833-6.382c1.626-6.973,2.875-13.736,0.338-19.816c-0.189-0.454-0.713-0.667-1.162-0.478 c-0.453,0.189-0.666,0.709-0.479,1.161c2.333,5.592,1.129,12.05-0.429,18.729c-0.337,1.445-0.583,2.969-0.732,4.551 c-1.001-0.987-2.11-1.832-3.194-2.659c-0.614-0.468-1.228-0.935-1.82-1.427c-2.346-1.952-3.85-4.302-4.596-7.188 c-0.123-0.474-0.602-0.764-1.083-0.637c-0.475,0.122-0.762,0.607-0.638,1.083C27.012,25.806,28.707,28.458,31.351,30.656z"></path>
        <path d="M56.193,33.342c-0.012,0.396,0.239,0.752,0.616,0.874c0.09,0.029,0.182,0.043,0.272,0.043 c0.29,0,0.567-0.142,0.737-0.392c1.088-1.613,2.496-2.866,3.988-4.191c1.367-1.215,2.781-2.472,3.942-4.04 c2.264-3.057,3.714-6.736,4.195-10.641c0.061-0.487-0.286-0.93-0.772-0.99c-0.498-0.059-0.93,0.286-0.991,0.773 c-0.442,3.601-1.778,6.99-3.858,9.801c-1.053,1.42-2.337,2.561-3.695,3.769c-0.939,0.834-1.896,1.685-2.778,2.641 c-0.128-1.078-0.335-2.134-0.538-3.17c-0.349-1.767-0.677-3.436-0.621-5.144c0.108-3.376,1.162-6.824,3.046-9.972 c0.253-0.421,0.116-0.966-0.305-1.219c-0.42-0.252-0.966-0.115-1.218,0.306c-2.04,3.406-3.182,7.15-3.3,10.827 c-0.061,1.909,0.302,3.758,0.654,5.545C55.917,29.936,56.246,31.614,56.193,33.342z"></path>
        <path d="M64.131,36.449c-1.822,3.226-2.975,7.146-3.425,11.65c-0.042,0.407,0.201,0.788,0.585,0.926 c0.099,0.035,0.2,0.051,0.298,0.051c0.291,0,0.573-0.144,0.741-0.398c1.209-1.829,2.762-3.001,4.408-4.243 c0.828-0.625,1.683-1.271,2.528-2.024c2.432-2.166,4.138-4.93,4.93-7.995c0.121-0.474-0.163-0.959-0.638-1.082 c-0.477-0.13-0.959,0.163-1.083,0.638c-0.704,2.722-2.222,5.182-4.391,7.112c-0.791,0.705-1.617,1.329-2.417,1.933 c-0.93,0.702-1.877,1.417-2.771,2.263c0.56-3.01,1.492-5.677,2.781-7.957c0.867-1.534,2.016-2.855,3.232-4.253 c1.107-1.274,2.252-2.591,3.17-4.089c1.94-3.158,2.963-7.039,2.963-11.223c0-0.491-0.397-0.888-0.888-0.888 c-0.491,0-0.888,0.397-0.888,0.888c0,3.855-0.933,7.415-2.699,10.295c-0.841,1.371-1.889,2.576-2.998,3.851 C66.348,33.308,65.087,34.759,64.131,36.449z"></path>
        <path d="M73.704,40.821c-1.072,4.777-3.947,7.044-7.587,9.913c-1.832,1.443-3.373,3.426-4.455,5.737 c-0.744,1.593-0.968,3.277-0.682,5.146c0.068,0.44,0.446,0.755,0.876,0.755c0.045,0,0.09-0.003,0.135-0.01 c0.486-0.074,0.819-0.527,0.744-1.011c-0.234-1.533-0.064-2.844,0.536-4.126c0.965-2.06,2.33-3.822,3.945-5.095 c3.761-2.966,7.009-5.526,8.222-10.917c0.108-0.479-0.194-0.954-0.673-1.062C74.282,40.042,73.814,40.343,73.704,40.821z"></path>
        <path d="M66.303,63.923c-0.029-0.005-0.104-0.012-0.135-0.015c-0.298-0.027-0.59,0.107-0.774,0.346 c-0.182,0.239-0.231,0.554-0.13,0.837c1.702,4.785,4.233,8.567,7.227,10.852c-2.266,0.59-4.833,0.179-6.572-1.156 c-3.095-2.378-8.133-2.378-11.228,0c-2.498,1.92-6.563,1.919-9.061,0c-3.095-2.378-8.133-2.377-11.228,0 c-1.803,1.382-4.464,1.78-6.754,1.133c1.849-0.95,3.68-2.155,4.934-3.831c1.013-1.351,1.318-3.139,0.777-4.553 c-0.441-1.151-1.395-1.927-2.686-2.184c-1.605-0.322-3.55,0.042-5.914,1.115c-5.81,2.632-8.634,6.039-8.634,10.417 c0,9.056,12.347,14.249,33.875,14.249c21.526,0,33.873-5.193,33.873-14.249C83.874,70.487,77.799,66.005,66.303,63.923z M50.001,89.357c-20.098,0-32.098-4.662-32.098-12.473c0-3.608,2.483-6.485,7.59-8.798c1.568-0.711,2.911-1.069,4.006-1.069 c0.295,0,0.571,0.026,0.829,0.077c0.69,0.138,1.152,0.501,1.372,1.077c0.319,0.831,0.097,2.005-0.54,2.853 c-1.419,1.896-3.843,3.15-6.029,4.126c-0.304,0.135-0.505,0.429-0.524,0.76s0.147,0.646,0.434,0.815 c3.133,1.861,7.626,1.632,10.444-0.53c2.498-1.919,6.565-1.919,9.063,0c3.095,2.378,8.131,2.378,11.226,0 c2.498-1.919,6.565-1.919,9.063,0c2.701,2.074,6.806,2.383,9.984,0.753c0.29-0.149,0.475-0.445,0.482-0.77 c0.007-0.326-0.165-0.63-0.448-0.791c-2.953-1.686-5.532-5.002-7.354-9.421c6.985,1.464,14.595,4.527,14.595,10.917 C82.098,84.695,70.099,89.357,50.001,89.357z"></path>
    </g>
</svg>
