<svg class="landscapeButton-icon" version="1.1" xmlns="http://www.w3.org/2000/svg" x="0px" y="0px" viewBox="0 0 100 100"
     preserveAspectRatio="xMidYMid meet">
    <path d="M96.189,52.244h-27.23c-1.107,0-2.698,0-4.28-0.249c0.397-1.656,0.583-3.416,0.064-4.961 c-0.533-1.589-2.012-2.289-3.883-1.824c-1.476,0.37-2.502,1.333-2.812,2.642c-0.326,1.364,0.206,2.845,1.388,3.866 c0.862,0.746,1.914,1.251,3.024,1.592c-0.125,0.389-0.25,0.763-0.37,1.116l-0.118,0.356c-0.061,0.182-0.268,0.806-0.581,1.75h-6.045 c-0.491,0-0.888,0.397-0.888,0.888c0,0.491,0.397,0.888,0.888,0.888h5.456c-0.825,2.491-1.999,6.041-3.267,9.878h-4.639 c-0.491,0-0.888,0.397-0.888,0.888s0.397,0.888,0.888,0.888h4.052c-1.953,5.91-4.028,12.196-5.33,16.158L47.95,75.178h4.03 c0.491,0,0.888-0.397,0.888-0.888c0-0.491-0.397-0.888-0.888-0.888h-4.625l-2.901-8.653h7.526c0.491,0,0.888-0.397,0.888-0.888 s-0.397-0.888-0.888-0.888h-8.122l-1.707-5.093h7.623c0.491,0,0.888-0.397,0.888-0.888c0-0.491-0.397-0.888-0.888-0.888h-8.218 l-1.022-3.047c-0.012-0.138-0.057-0.263-0.126-0.375l-1.278-3.811c-0.219-0.567-0.078-1.03,0.078-1.318 c0.283-0.519,0.831-0.896,1.438-1.025c0.375-0.05,9.2-1.282,9.916-6.399c0.491-3.497-2.897-5.768-4.717-6.988l-0.475-0.321 c-4.712-3.258-5.855-7.738-6.129-9.674c0.992,0.167,2.583,0.527,4.242,1.273c0.389,0.182,0.859,0.047,1.102-0.313 c0.241-0.36,0.189-0.841-0.125-1.14c-0.713-0.678-1.317-1.404-1.796-2.156c-1.985-3.113-2.051-6.906-1.955-8.651 c2.965,0.827,5.732,2.856,7.878,5.799c0.507,0.692,0.973,1.421,1.397,2.174c-0.137,0.269-0.269,0.54-0.396,0.815 c-0.201,0.439-2.467,8.66-0.599,11.574c0.468,0.733,1.161,1.12,2,1.12c0.841,0,1.534-0.388,2.002-1.122 c1.872-2.926-0.401-11.136-0.602-11.572c-0.127-0.274-0.257-0.546-0.394-0.814c0.425-0.756,0.892-1.483,1.397-2.175 c2.143-2.937,4.908-4.97,7.873-5.809c0.102,1.825,0.017,5.559-1.959,8.661c-0.479,0.751-1.083,1.477-1.796,2.156 c-0.314,0.299-0.366,0.78-0.125,1.14c0.243,0.36,0.71,0.494,1.103,0.313c1.622-0.731,3.183-1.092,4.179-1.263 c-0.304,1.771-1.206,5.335-3.759,7.888c-0.775,0.775-1.707,1.459-2.843,2.078c-0.095,0.064-2.347,1.613-2.798,4.16 c-0.264,1.492,0.134,2.985,1.183,4.438c0.288,0.397,0.841,0.484,1.24,0.2c0.397-0.287,0.487-0.842,0.2-1.24 c-0.755-1.044-1.05-2.078-0.876-3.076c0.309-1.775,1.983-2.965,1.973-2.965c1.213-0.655,2.281-1.442,3.178-2.339 c3.976-3.977,4.405-9.87,4.42-10.119c0.017-0.256-0.078-0.506-0.258-0.686c-0.18-0.181-0.402-0.272-0.687-0.258 c-0.073,0.005-1.216,0.086-2.814,0.495c2.753-4.355,2.25-9.703,2.115-10.774c-0.017-0.178-0.088-0.35-0.21-0.49 c-0.206-0.24-0.527-0.352-0.841-0.292c-3.766,0.726-7.295,3.118-9.934,6.734c-0.338,0.464-0.661,0.943-0.966,1.435 c-0.305-0.491-0.628-0.97-0.966-1.435c-2.644-3.622-6.174-6.009-9.941-6.72c-0.236-0.041-0.481,0.009-0.678,0.147 c-0.196,0.139-0.328,0.351-0.364,0.59c-0.038,0.245-0.893,6.067,2.106,10.806c-1.515-0.388-2.623-0.481-2.809-0.495 c-0.425-0.041-0.802,0.234-0.919,0.632c-0.184,0.614,0.153,7.717,6.943,12.41l0.496,0.337c1.601,1.073,4.283,2.87,3.947,5.265 c-0.441,3.142-6.207,4.591-8.457,4.896c-1.181,0.246-2.165,0.948-2.698,1.925c-0.475,0.872-0.538,1.868-0.189,2.769l0.93,2.774 H3.811c-0.491,0-0.888,0.397-0.888,0.888S3.32,54.02,3.811,54.02h35.173l11.802,35.203c0.121,0.363,0.46,0.606,0.841,0.606 c0.345,0.081,0.725-0.245,0.845-0.612c2.148-6.566,10.723-32.496,11.185-33.871l0.118-0.354c0.135-0.402,0.279-0.83,0.42-1.276 c1.783,0.304,3.543,0.304,4.764,0.304h27.23c0.491,0,0.888-0.397,0.888-0.888S96.68,52.244,96.189,52.244z M50.987,22.403 c0.541,2.092,1.567,7.585,0.491,9.18c-0.156,0.232-0.302,0.278-0.489,0.278c-0.186,0-0.333-0.047-0.489-0.278 C49.424,29.991,50.453,24.482,50.987,22.403z M62.946,51.602c-0.883-0.274-1.7-0.666-2.347-1.227 c-0.678-0.586-0.994-1.395-0.822-2.111c0.154-0.651,0.694-1.124,1.516-1.331c0.26-0.064,0.481-0.092,0.67-0.092 c0.843,0,1.029,0.552,1.098,0.758C63.447,48.757,63.286,50.196,62.946,51.602z"></path>
</svg>
