<svg xmlns="http://www.w3.org/2000/svg" id="heading-product-picker--inline"
     viewBox="0 0 968.81 71.32">
    <g>
        <path fill="#00538C"
              d="M188.15 71.32a38.89 38.89 0 0 1-14.71-2.82 33.49 33.49 0 0 1-18.77-19.07 37.43 37.43 0 0 1-2.51-14 37.47 37.47 0 0 1 2.7-14 33.79 33.79 0 0 1 7.49-11.29 34.33 34.33 0 0 1 11.55-7.47A38.9 38.9 0 0 1 188.64 0a38.43 38.43 0 0 1 14.7 2.85 34.41 34.41 0 0 1 11.39 7.64A34 34 0 0 1 222 21.93a37.36 37.36 0 0 1 2.51 14 37.46 37.46 0 0 1-2.7 14 33.46 33.46 0 0 1-19 18.8 38.72 38.72 0 0 1-14.66 2.59zm.37-53.24a17 17 0 0 0-6.58 1.14 12.26 12.26 0 0 0-4.64 3.26 15.34 15.34 0 0 0-3 5.41 25 25 0 0 0-1.15 7.66 25.15 25.15 0 0 0 1 7.72 15.33 15.33 0 0 0 2.93 5.46A12.06 12.06 0 0 0 181.7 52a17.28 17.28 0 0 0 6.57 1.22 17 17 0 0 0 6.52-1.12 12.1 12.1 0 0 0 4.61-3.23 15.34 15.34 0 0 0 3-5.42 25.16 25.16 0 0 0 1.15-7.71 25 25 0 0 0-1-7.68 15.35 15.35 0 0 0-2.93-5.46 12.32 12.32 0 0 0-4.62-3.29 16.73 16.73 0 0 0-6.48-1.23zM244.25 70.09L244.17.17h27.16a39.63 39.63 0 0 1 14.55 3.1 34.38 34.38 0 0 1 11.36 7.49 33 33 0 0 1 7.35 11.13 36.53 36.53 0 0 1 2.6 13.81 36.49 36.49 0 0 1-2.57 13.83 32.79 32.79 0 0 1-7.32 11.06 32.93 32.93 0 0 1-11.36 7.09 39.8 39.8 0 0 1-14.54 2.41zm27.14-17.15a16.4 16.4 0 0 0 6.42-1 12.06 12.06 0 0 0 4.57-3.2 15.17 15.17 0 0 0 2.94-5.39 25 25 0 0 0 1.08-7.65 24.93 24.93 0 0 0-1.09-7.62 15.4 15.4 0 0 0-3-5.43 13.56 13.56 0 0 0-4.58-3.77 16.33 16.33 0 0 0-6.43-1.65h-7.18V52.9zM354.85 70a34.12 34.12 0 0 1-12.37-2.12 27.25 27.25 0 0 1-9.48-6.12 26.48 26.48 0 0 1-6-9.33 32.43 32.43 0 0 1-2-11.66L324.85.15h19.83l.07 40.57a16.4 16.4 0 0 0 .92 5.08 10 10 0 0 0 2 3.47 7.84 7.84 0 0 0 2.94 2.06 12 12 0 0 0 8.36 0 7.83 7.83 0 0 0 2.89-2.06 9.71 9.71 0 0 0 1.94-3.44 16.54 16.54 0 0 0 .77-5.09L364.51.08h19.83l.07 40.61a32.11 32.11 0 0 1-1.89 11.68 26.62 26.62 0 0 1-5.93 9.34 27.09 27.09 0 0 1-9.46 6.11A33.77 33.77 0 0 1 354.85 70zM433.85 69.22A34.78 34.78 0 0 1 420 66.64a30.36 30.36 0 0 1-10.5-7.29 32.21 32.21 0 0 1-6.61-11 40.15 40.15 0 0 1-2.31-13.59 36.27 36.27 0 0 1 2.55-13.85 32.72 32.72 0 0 1 7.26-11 33 33 0 0 1 11.17-7.22 38.69 38.69 0 0 1 14.2-2.6 36.56 36.56 0 0 1 7.14.65 35.29 35.29 0 0 1 6.29 1.83 30.24 30.24 0 0 1 5.47 2.85 26.84 26.84 0 0 1 4.49 3.72l1.63 1.7-6.24 8.44a9.08 9.08 0 0 1-1.65 1.64 5.58 5.58 0 0 1-3.43 1.08 6 6 0 0 1-2.7-.63 18.84 18.84 0 0 1-1.71-1l-1.67-1.05a10.4 10.4 0 0 0-1.71-.82 15.53 15.53 0 0 0-2.48-.69 17.42 17.42 0 0 0-3.39-.27 15.38 15.38 0 0 0-6.07 1.18 12.85 12.85 0 0 0-4.58 3.29 15.72 15.72 0 0 0-3 5.33 21.85 21.85 0 0 0-1.15 7.35 23 23 0 0 0 1.17 7.56 16 16 0 0 0 3 5.32 12.14 12.14 0 0 0 4.27 3.14 12.94 12.94 0 0 0 5.28 1.06 28 28 0 0 0 3.26-.19 12 12 0 0 0 2.44-.54 11.31 11.31 0 0 0 2.12-1 14.92 14.92 0 0 0 2.13-1.57 7.94 7.94 0 0 1 1.76-1.13 5.66 5.66 0 0 1 4.42-.18 5.54 5.54 0 0 1 2 1.29l7.44 7.77-1.44 1.9a26.62 26.62 0 0 1-10.47 8.3 35.84 35.84 0 0 1-14.53 2.8zM493.04 69.42l-.03-51.96-16.08.01-.01-17.32 54.43-.02.01 17.31-18.56.01.03 51.96-19.79.01zM0 71.16V0h26.61a40.19 40.19 0 0 1 12.65 2.09 25.75 25.75 0 0 1 9.1 5.21 20.61 20.61 0 0 1 5.45 7.89 26 26 0 0 1 1.7 9.44 27.64 27.64 0 0 1-1.75 9.94 20.79 20.79 0 0 1-5.52 8 25.28 25.28 0 0 1-9.14 5.06 40.22 40.22 0 0 1-12.53 1.77H21.8v21.78zM26.59 32c3 0 5.16-.43 6.3-1.66s1.81-3.14 1.81-5.75a8.58 8.58 0 0 0-.49-3 5.2 5.2 0 0 0-1.31-2 6.41 6.41 0 0 0-2.34-1.46 12.2 12.2 0 0 0-4-.65h-4.74V32zM118.53 70.83a8.78 8.78 0 0 1-7.88-4.75L100 47.16a2.46 2.46 0 0 0-.56-.75 2.36 2.36 0 0 0-1.26-.23h-.48v24.59H76V.06h24.32a46.4 46.4 0 0 1 12.7 1.41A25.22 25.22 0 0 1 122.15 6a17.94 17.94 0 0 1 5.36 7.16 22.89 22.89 0 0 1 1.62 8.65 23.31 23.31 0 0 1-1 6.73 20.84 20.84 0 0 1-2.9 6 22.23 22.23 0 0 1-4.66 4.84q-.84.65-1.76 1.22a18.47 18.47 0 0 1 2 3.06l16.34 27.25zm-18.15-40.42a12.22 12.22 0 0 0 4.21-.79 6.71 6.71 0 0 0 2.41-1.57 5.42 5.42 0 0 0 1.29-2.13 9.62 9.62 0 0 0 .47-3.05 4.76 4.76 0 0 0-1.76-4.1c-1.27-1.1-3.57-1.35-6.65-1.35h-2.64v13z"></path>
        <path fill="#FFFFFF"
              d="M188.19 64.14a29.14 29.14 0 0 1-11.43-2.27A25.91 25.91 0 0 1 168 55.8a27.07 27.07 0 0 1-5.56-9 31.32 31.32 0 0 1-1.92-11.29 31.33 31.33 0 0 1 2.08-11.26 26.86 26.86 0 0 1 5.68-8.94 26.09 26.09 0 0 1 8.81-5.93 29.13 29.13 0 0 1 11.46-2.11A28.76 28.76 0 0 1 200 9.52a26.19 26.19 0 0 1 8.69 6.07 27.05 27.05 0 0 1 5.54 9 31.2 31.2 0 0 1 1.92 11.24 31.31 31.31 0 0 1-2.08 11.26 27.29 27.29 0 0 1-5.67 9 25.8 25.8 0 0 1-8.77 5.91 29 29 0 0 1-11.44 2.14zm.39-55.46a27.7 27.7 0 0 0-10.9 2 24.65 24.65 0 0 0-8.32 5.6 25.44 25.44 0 0 0-5.36 8.46 29.88 29.88 0 0 0-2 10.74 29.88 29.88 0 0 0 1.83 10.77 25.65 25.65 0 0 0 5.26 8.57 24.49 24.49 0 0 0 8.24 5.73 29.57 29.57 0 0 0 21.75.15 24.34 24.34 0 0 0 8.28-5.61 25.83 25.83 0 0 0 5.37-8.5 29.86 29.86 0 0 0 2-10.74 29.75 29.75 0 0 0-1.83-10.72 25.62 25.62 0 0 0-5.24-8.55 24.77 24.77 0 0 0-8.21-5.73 27.35 27.35 0 0 0-10.87-2.18zM30.16 8.42H10.43v55.94h1.45V40.61h18.26a16.1 16.1 0 1 0 0-32.19zm0 30.74h-18.3V9.87h18.3a14.64 14.64 0 1 1 0 29.29zM271.9 63.18h-19.63l-.06-54.34h19.63a26.6 26.6 0 0 1 26.6 26.54v1.21a26.6 26.6 0 0 1-26.54 26.59zm-18.21-1.41h18.2A25.17 25.17 0 0 0 297 36.58v-1.21a25.17 25.17 0 0 0-25.17-25.11h-18.2zM356.12 62.07h-3.72A19.15 19.15 0 0 1 333.25 43l-.06-36.47h1.42l.05 36.47a17.73 17.73 0 0 0 17.74 17.66h3.72a17.73 17.73 0 0 0 17.68-17.74l-.06-36.47h1.42l.06 36.47a19.15 19.15 0 0 1-19.1 19.15zM435.7 61.49c-14.5.06-25.91-11.73-26-26.83s11.26-27 25.76-27a25.44 25.44 0 0 1 13.84 4l-.75 1.18A24 24 0 0 0 435.5 9c-13.72.05-24.42 11.31-24.37 25.63S422 60.14 435.69 60.09a24.08 24.08 0 0 0 12.79-3.66l.74 1.18a25.48 25.48 0 0 1-13.52 3.88zM521.45 8.79l-35.87.02v1.23h16.08l.03 51.95h1.24l-.03-51.95 18.56-.01-.01-1.24zM121.64 63.28l-13.76-24.16a16 16 0 0 0-3.61-31.56H86.11v55.71h1.44V39.54h16.72a16 16 0 0 0 2.12-.16L120 63.28zM87.54 38.1V9h16.72a14.55 14.55 0 1 1 0 29.1z"></path>
    </g>
    <g>
        <path fill="#00538C"
              d="M660.476.18l19.53-.073.25 68.36-19.53.07zM592.44 68.55L592.27.08 617.42 0a39.07 39.07 0 0 1 12.18 1.7 24.59 24.59 0 0 1 8.77 4.86 19.62 19.62 0 0 1 5.27 7.51 24.8 24.8 0 0 1 1.67 9 26.5 26.5 0 0 1-1.66 9.55 20 20 0 0 1-5.29 7.75 24.72 24.72 0 0 1-8.78 5.15 38.34 38.34 0 0 1-12 1.95h-4.19l.05 21zm25.06-37.8c2.93 0 5-.69 6.06-1.88s1.73-3.15 1.72-5.67a8.63 8.63 0 0 0-.48-2.94 5.13 5.13 0 0 0-1.27-2 5.86 5.86 0 0 0-2.26-1.16 12.31 12.31 0 0 0-3.81-.37h-4.19v14zM730.75 68.17a34.2 34.2 0 0 1-13.67-2 29.86 29.86 0 0 1-10.6-6.76 31.67 31.67 0 0 1-6.92-10.54 39.48 39.48 0 0 1-2.79-13.26 35.66 35.66 0 0 1 2-13.71 32.17 32.17 0 0 1 6.7-11.1 32.47 32.47 0 0 1 10.7-7.53A38 38 0 0 1 730 .18a36 36 0 0 1 7 .36 34.7 34.7 0 0 1 6.25 1.55 29.74 29.74 0 0 1 5.48 2.59 26.39 26.39 0 0 1 4.56 3.48L755 9.77l-5.8 8.54a8.93 8.93 0 0 1-1.57 1.69 5.49 5.49 0 0 1-3.38 1.19 5.87 5.87 0 0 1-2.68-.51 18.53 18.53 0 0 1-1.71-.88l-1.68-1a10.23 10.23 0 0 0-1.71-.74 15.27 15.27 0 0 0-2.47-.56 17.13 17.13 0 0 0-3.34-.14 15.12 15.12 0 0 0-5.91 1.4 12.63 12.63 0 0 0-4.37 3.41 15.45 15.45 0 0 0-2.79 5.35 21.48 21.48 0 0 0-.81 7.22 22.57 22.57 0 0 0 1.45 7.39 15.69 15.69 0 0 0 3.17 5.11 11.94 11.94 0 0 0 4.32 2.92 12.72 12.72 0 0 0 5.23.84 27.54 27.54 0 0 0 3.19-.31 11.82 11.82 0 0 0 2.37-.63 11.12 11.12 0 0 0 2-1 14.67 14.67 0 0 0 2-1.63 7.8 7.8 0 0 1 1.68-1.18 5.56 5.56 0 0 1 4.33-.35 5.45 5.45 0 0 1 2 1.19l7.61 7.34-1.34 1.92a26.17 26.17 0 0 1-10 8.56 35.24 35.24 0 0 1-14.04 3.26zM817.32 68a13 13 0 0 1-2.62-.33 8.16 8.16 0 0 1-2.28-.84 7.23 7.23 0 0 1-1.8-1.38 11.25 11.25 0 0 1-1.19-1.51l-14-21.46a1.18 1.18 0 0 0-.68-.55 6.73 6.73 0 0 0-2.08-.19h-1L791.7 68h-19.38L772.19.27h19.38l.05 25.35c1.38-.1 1.82-.6 2-.8l13.9-20.15a9.3 9.3 0 0 1 3.87-3.45 12.41 12.41 0 0 1 4.65-1h17.9l-21.49 29.49A17.26 17.26 0 0 1 811 31.6a14.93 14.93 0 0 1 2.75 3.4l21.45 33zM951 67.72a8.39 8.39 0 0 1-7.54-4.53l-10.23-18.07a2.43 2.43 0 0 0-.53-.72 2.23 2.23 0 0 0-1.2-.22h-.5v23.5h-20.69V.1h23.25a44.35 44.35 0 0 1 12.14 1.33 24.1 24.1 0 0 1 8.66 4.26 17.15 17.15 0 0 1 5.13 6.83 21.88 21.88 0 0 1 1.56 8.27 22.28 22.28 0 0 1-.91 6.44 19.92 19.92 0 0 1-2.76 5.7 21.24 21.24 0 0 1-4.45 4.63q-.8.62-1.68 1.17a17.65 17.65 0 0 1 1.91 2.92l15.65 26zm-17.4-38.61a11.67 11.67 0 0 0 4-.76 6.41 6.41 0 0 0 2.34-1.5 5.18 5.18 0 0 0 1.23-2 9.19 9.19 0 0 0 .44-2.92 4.55 4.55 0 0 0-1.67-3.93c-1.22-1-3.41-1.29-6.36-1.29H931v12.4z"></path>
        <path fill="#FFFFFF"
              d="M603.41 61.05H602l-.14-53.44h19a15.49 15.49 0 1 1 .08 31h-17.58zm-.06-23.86h17.58A14.09 14.09 0 1 0 620.87 9h-17.59zM669.567 8.655l1.4-.005.193 52.75-1.4.005zM732.26 60.5c-14.26.62-25.9-10.5-26.55-25.35S715.72 8.21 730 7.6a25 25 0 0 1 13.75 3.35l-.75 1.18A23.65 23.65 0 0 0 730 9c-13.48.58-23.55 12.06-22.94 26.12s11.64 24.62 25.12 24A23.67 23.67 0 0 0 744.62 55l.78 1.13a25.05 25.05 0 0 1-13.14 4.37zM796.9 33.72a14.42 14.42 0 0 0 6-4.82l14.49-20.16h-1.71L801.81 28a13 13 0 0 1-10.57 5.4h-9.29l-.05-24.65h-1.38l.11 52.25H782l-.05-26.21h12.6a14.35 14.35 0 0 1 11.89 6.33L819.86 61h1.66l-13.94-20.58a15.67 15.67 0 0 0-10.68-6.7zM954 60.51l-13.23-23.08a15.28 15.28 0 0 0-3.48-30.16h-17.36v53.25h1.38V37.86h16a15.28 15.28 0 0 0 2-.15l13 22.81zm-32.62-24V8.69h16a13.91 13.91 0 1 1 0 27.82z"></path>
        <path fill="#00538C"
              d="M849.71 67.95L849.8.17l42.99.06-.02 16.59-24.18-.03-.02 9.68 18.81.03-.02 15.22-18.81-.03-.01 9.68 24.18.04-.02 16.6-42.99-.06z"></path>
        <path fill="#FFFFFF"
              d="M886.06 9.9V8.52l-28.21-.04-.07 52.56 28.21.04V59.7l-26.87-.04.04-23.52 21.49.03v-1.38l-21.49-.03.04-24.9 26.86.04z"></path>
    </g>
</svg>
